<svg width="39" height="39" viewBox="0 0 39 39" fill="none" xmlns="http://www.w3.org/2000/svg">
<path d="M37.6694 19.1209C37.6694 28.884 29.7548 36.7985 19.9917 36.7985C10.2286 36.7985 2.31403 28.884 2.31403 19.1209C2.31403 9.35777 10.2286 1.4432 19.9917 1.4432C29.7548 1.4432 37.6694 9.35777 37.6694 19.1209Z" fill="#F0F0C9"/>
<path fill-rule="evenodd" clip-rule="evenodd" d="M33.3051 33.3051C25.8852 40.7251 13.8551 40.7251 6.43509 33.3051C-0.984864 25.8851 -0.984884 13.855 6.43509 6.43502C13.855 -0.984932 25.8852 -0.984932 33.3051 6.43502C40.7251 13.855 40.7251 25.8851 33.3051 33.3051ZM27.0675 12.6727C27.8624 13.4677 27.8624 14.7567 27.0675 15.5516L22.7491 19.8701L27.0675 24.1885C27.8624 24.9834 27.8624 26.2724 27.0675 27.0674C26.2725 27.8624 24.9835 27.8624 24.1885 27.0674L19.8701 22.749L15.5517 27.0674C14.7567 27.8624 13.4678 27.8624 12.6728 27.0674C11.8778 26.2724 11.8778 24.9834 12.6728 24.1885L16.9912 19.8701L12.6728 15.5516C11.8778 14.7567 11.8778 13.4677 12.6728 12.6727C13.4678 11.8777 14.7567 11.8777 15.5517 12.6727L19.8701 16.9911L24.1885 12.6727C24.9835 11.8777 26.2725 11.8777 27.0675 12.6727Z" fill="#D74E09"/>
</svg>
