<svg width="20" height="20" viewBox="0 0 20 20" fill="none" xmlns="http://www.w3.org/2000/svg">
<path d="M4.99998 14.1667C5.92045 14.1667 6.66665 14.9129 6.66665 15.8333C6.66665 16.7538 5.92045 17.5 4.99998 17.5C4.07951 17.5 3.33331 16.7538 3.33331 15.8333C3.33331 14.9129 4.07951 14.1667 4.99998 14.1667Z" fill="#D74E09"/>
<path d="M15 8.33333C15.9205 8.33333 16.6666 9.07953 16.6666 10C16.6666 10.9205 15.9205 11.6667 15 11.6667C14.0795 11.6667 13.3333 10.9205 13.3333 10C13.3333 9.07953 14.0795 8.33333 15 8.33333Z" fill="#D74E09"/>
<path d="M11.6666 4.16667C11.6666 3.24619 10.9205 2.5 9.99998 2.5C9.0795 2.5 8.33331 3.24619 8.33331 4.16667C8.33331 5.08714 9.0795 5.83333 9.99998 5.83333C10.9205 5.83333 11.6666 5.08714 11.6666 4.16667Z" fill="#D74E09"/>
<path d="M3.33331 4.16667L8.33331 4.16667M8.33331 4.16667C8.33331 5.08714 9.0795 5.83333 9.99998 5.83333C10.9205 5.83333 11.6666 5.08714 11.6666 4.16667M8.33331 4.16667C8.33331 3.24619 9.0795 2.5 9.99998 2.5C10.9205 2.5 11.6666 3.24619 11.6666 4.16667M11.6666 4.16667L16.6666 4.16667M3.33331 10H13.3333M13.3333 10C13.3333 10.9205 14.0795 11.6667 15 11.6667C15.9205 11.6667 16.6666 10.9205 16.6666 10C16.6666 9.07953 15.9205 8.33333 15 8.33333C14.0795 8.33333 13.3333 9.07953 13.3333 10ZM6.66665 15.8333H16.6666M6.66665 15.8333C6.66665 14.9129 5.92045 14.1667 4.99998 14.1667C4.0795 14.1667 3.33331 14.9129 3.33331 15.8333C3.33331 16.7538 4.07951 17.5 4.99998 17.5C5.92045 17.5 6.66665 16.7538 6.66665 15.8333Z" stroke="#F0F0C9" stroke-width="2" stroke-linecap="round" stroke-linejoin="round"/>
</svg>
