<svg width="24" height="24" viewBox="0 0 24 24" fill="none" xmlns="http://www.w3.org/2000/svg">
<path d="M4.8657 11.8113L12.1525 19.368L19.4394 11.8113C20.2494 10.9712 20.7045 9.83189 20.7045 8.64389C20.7045 6.17 18.7706 4.16452 16.3851 4.16452C15.2395 4.16452 14.1409 4.63645 13.3308 5.47649L12.1525 6.69843L10.9742 5.47649C10.1642 4.63645 9.06555 4.16452 7.91998 4.16452C5.53444 4.16452 3.60059 6.17 3.60059 8.64389C3.60059 9.83189 4.05566 10.9712 4.8657 11.8113Z" fill="#F0F0C9"/>
<path d="M4.8657 11.8113L12.1525 19.368L19.4394 11.8113C20.2494 10.9712 20.7045 9.83189 20.7045 8.64389C20.7045 6.17 18.7706 4.16452 16.3851 4.16452C15.2395 4.16452 14.1409 4.63645 13.3308 5.47649L12.1525 6.69843L10.9742 5.47649C10.1642 4.63645 9.06555 4.16452 7.91998 4.16452C5.53444 4.16452 3.60059 6.17 3.60059 8.64389C3.60059 9.83189 4.05566 10.9712 4.8657 11.8113Z" stroke="#F0F0C9" stroke-width="1.59091" stroke-linecap="round" stroke-linejoin="round"/>
</svg>
