<svg width="113" height="113" viewBox="0 0 113 113" fill="none" xmlns="http://www.w3.org/2000/svg">
<g clip-path="url(#clip0_85_855)">
<circle cx="56.5" cy="56.5" r="56.5" fill="#F0F0C9"/>
<path fill-rule="evenodd" clip-rule="evenodd" d="M113 56.5C113 71.649 107.038 85.4054 97.3325 95.5512C87.0818 106.266 72.6566 112.953 56.6686 113C56.6124 113 56.5563 113 56.5 113C56.4437 113 56.3876 113 56.3314 113C40.3434 112.953 25.9178 106.266 15.6677 95.5512C5.96203 85.4054 0 71.649 0 56.5C0 25.2959 25.2959 0 56.5 0C87.7041 0 113 25.2959 113 56.5ZM90.7455 84.75C82.6038 74.8905 70.2855 68.6069 56.5 68.6069C42.7145 68.6069 30.3965 74.8905 22.2541 84.75C30.3965 94.6093 42.7145 100.893 56.5 100.893C70.2855 100.893 82.6038 94.6093 90.7455 84.75ZM56.501 60.5355C67.6453 60.5355 76.6795 51.5012 76.6795 40.3569C76.6795 29.2126 67.6453 20.1783 56.501 20.1783C45.3567 20.1783 36.3224 29.2126 36.3224 40.3569C36.3224 51.5012 45.3567 60.5355 56.501 60.5355Z" fill="#124E78"/>
</g>
<defs>
<clipPath id="clip0_85_855">
<rect width="113" height="113" fill="white"/>
</clipPath>
</defs>
</svg>
