<svg width="40" height="40" viewBox="0 0 40 40" fill="none" xmlns="http://www.w3.org/2000/svg">
<g clip-path="url(#clip0_349_1141)">
<path fill-rule="evenodd" clip-rule="evenodd" d="M38 19C38 24.0944 35.995 28.7204 32.7313 32.1323C29.2842 35.7355 24.4332 37.9843 19.0567 38C19.0378 38 19.0189 38 19 38C18.9811 38 18.9622 38 18.9433 38C13.5668 37.9843 8.71573 35.7355 5.26878 32.1323C2.00493 28.7204 0 24.0944 0 19C0 8.5066 8.5066 0 19 0C29.4934 0 38 8.5066 38 19ZM30.5162 28.5C27.7783 25.1844 23.6358 23.0713 19 23.0713C14.3642 23.0713 10.2218 25.1844 7.48369 28.5C10.2218 31.8155 14.3642 33.9286 19 33.9286C23.6358 33.9286 27.7783 31.8155 30.5162 28.5ZM19.0003 20.3571C22.748 20.3571 25.786 17.319 25.786 13.5713C25.786 9.8237 22.748 6.78563 19.0003 6.78563C15.2527 6.78563 12.2146 9.8237 12.2146 13.5713C12.2146 17.319 15.2527 20.3571 19.0003 20.3571Z" fill="#124E78"/>
</g>
<g clip-path="url(#clip1_349_1141)">
<path fill-rule="evenodd" clip-rule="evenodd" d="M40 33C40 36.866 36.866 40 33 40C29.134 40 26 36.866 26 33C26 29.134 29.134 26 33 26C36.866 26 40 29.134 40 33ZM33 29.25C33.4142 29.25 33.75 29.5858 33.75 30V32.25H36C36.4142 32.25 36.75 32.5858 36.75 33C36.75 33.4142 36.4142 33.75 36 33.75H33.75V36C33.75 36.4142 33.4142 36.75 33 36.75C32.5858 36.75 32.25 36.4142 32.25 36V33.75H30C29.5858 33.75 29.25 33.4142 29.25 33C29.25 32.5858 29.5858 32.25 30 32.25H32.25V30C32.25 29.5858 32.5858 29.25 33 29.25Z" fill="#F2BB05"/>
</g>
<defs>
<clipPath id="clip0_349_1141">
<rect width="38" height="38" fill="white"/>
</clipPath>
<clipPath id="clip1_349_1141">
<rect width="14" height="14" fill="white" transform="translate(26 26)"/>
</clipPath>
</defs>
</svg>
