<svg width="38" height="39" viewBox="0 0 38 39" fill="none" xmlns="http://www.w3.org/2000/svg">
<g clip-path="url(#clip0_117_424)">
<path fill-rule="evenodd" clip-rule="evenodd" d="M38 19.4691C38 24.5006 35.995 29.0695 32.7313 32.4392C29.2842 35.998 24.4332 38.219 19.0567 38.2345C19.0378 38.2345 19.0189 38.2345 19 38.2345C18.9811 38.2345 18.9622 38.2345 18.9433 38.2345C13.5668 38.219 8.71573 35.998 5.26878 32.4392C2.00493 29.0695 0 24.5006 0 19.4691C0 9.10525 8.5066 0.703674 19 0.703674C29.4934 0.703674 38 9.10525 38 19.4691ZM30.5162 28.8518C27.7783 25.5772 23.6358 23.4902 19 23.4902C14.3642 23.4902 10.2218 25.5772 7.48369 28.8518C10.2218 32.1264 14.3642 34.2134 19 34.2134C23.6358 34.2134 27.7783 32.1264 30.5162 28.8518ZM19.0003 20.8094C22.748 20.8094 25.786 17.8088 25.786 14.1075C25.786 10.4061 22.748 7.40553 19.0003 7.40553C15.2527 7.40553 12.2146 10.4061 12.2146 14.1075C12.2146 17.8088 15.2527 20.8094 19.0003 20.8094Z" fill="#F2BB05"/>
</g>
<defs>
<clipPath id="clip0_117_424">
<rect width="38" height="37.5309" fill="white" transform="translate(0 0.703674)"/>
</clipPath>
</defs>
</svg>
