<svg width="38" height="39" viewBox="0 0 38 39" fill="none" xmlns="http://www.w3.org/2000/svg">
<g clip-path="url(#clip0_117_415)">
<path fill-rule="evenodd" clip-rule="evenodd" d="M38 19.4691C38 29.833 29.4934 38.2345 19 38.2345C8.5066 38.2345 0 29.833 0 19.4691C0 9.10525 8.5066 0.703674 19 0.703674C29.4934 0.703674 38 9.10525 38 19.4691ZM19 9.4162C20.1243 9.4162 21.0357 10.3164 21.0357 11.4268V17.4585H27.1429C28.2671 17.4585 29.1786 18.3587 29.1786 19.4691C29.1786 20.5795 28.2671 21.4797 27.1429 21.4797H21.0357V27.5114C21.0357 28.6218 20.1243 29.522 19 29.522C17.8757 29.522 16.9643 28.6218 16.9643 27.5114V21.4797H10.8571C9.73286 21.4797 8.82143 20.5795 8.82143 19.4691C8.82143 18.3587 9.73286 17.4585 10.8571 17.4585H16.9643V11.4268C16.9643 10.3164 17.8757 9.4162 19 9.4162Z" fill="#D74E09"/>
</g>
<defs>
<clipPath id="clip0_117_415">
<rect width="38" height="37.5309" fill="white" transform="translate(0 0.703674)"/>
</clipPath>
</defs>
</svg>
