<svg width="18" height="19" viewBox="0 0 18 19" fill="none" xmlns="http://www.w3.org/2000/svg">
<g clip-path="url(#clip0_117_20)">
<path fill-rule="evenodd" clip-rule="evenodd" d="M3.01081 8.19931C3.01081 5.39405 5.19676 3.11994 7.89327 3.11994C10.5898 3.11994 12.7757 5.39405 12.7757 8.19931C12.7757 11.0046 10.5898 13.2787 7.89327 13.2787C5.19676 13.2787 3.01081 11.0046 3.01081 8.19931ZM7.89327 0.580261C3.84851 0.580261 0.56958 3.99142 0.56958 8.19931C0.56958 12.4072 3.84851 15.8184 7.89327 15.8184C9.47492 15.8184 10.9395 15.2967 12.1366 14.4098L15.5745 17.9864C16.0511 18.4822 16.824 18.4822 17.3007 17.9864C17.7773 17.4905 17.7773 16.6864 17.3007 16.1905L13.8629 12.6141C14.7155 11.3686 15.217 9.84487 15.217 8.19931C15.217 3.99142 11.938 0.580261 7.89327 0.580261Z" fill="#F0F0C9"/>
</g>
<defs>
<clipPath id="clip0_117_20">
<rect width="17.0886" height="17.7778" fill="white" transform="translate(0.56958 0.580261)"/>
</clipPath>
</defs>
</svg>
