<svg width="17" height="17" viewBox="0 0 17 17" fill="none" xmlns="http://www.w3.org/2000/svg">
<path d="M9.296 5.87764C9.296 5.28564 9.24 4.82164 9.128 4.48564C9.016 4.13364 8.816 3.86964 8.528 3.69364C8.256 3.51764 7.952 3.40564 7.616 3.35764C7.296 3.29364 6.848 3.26164 6.272 3.26164V8.54164C6.72 8.54164 7.112 8.50164 7.448 8.42164C7.8 8.34164 8.12 8.20564 8.408 8.01364C8.696 7.82164 8.912 7.54964 9.056 7.19764C9.216 6.82964 9.296 6.38964 9.296 5.87764ZM6.272 13.0296C6.272 14.3256 6.032 15.2536 5.552 15.8136C5.072 16.3576 4.336 16.6296 3.344 16.6296C2.352 16.6296 1.624 16.3816 1.16 15.8856C0.696 15.3736 0.464 14.4776 0.464 13.1976V3.06964C0.464 2.09364 0.728 1.37364 1.256 0.909638C1.784 0.429637 2.48 0.189637 3.344 0.189637H7.616C8.656 0.189637 9.616 0.333637 10.496 0.621637C11.376 0.893638 12.136 1.28564 12.776 1.79764C13.432 2.29364 13.936 2.92564 14.288 3.69364C14.656 4.44564 14.84 5.28564 14.84 6.21364C14.84 7.34964 14.512 8.34164 13.856 9.18964C13.2 10.0216 12.336 10.6456 11.264 11.0616C10.192 11.4776 8.984 11.6856 7.64 11.6856H6.272V13.0296ZM11.7669 14.9736C11.7669 14.4296 11.9909 13.9896 12.4389 13.6536C12.9029 13.3176 13.5509 13.1496 14.3829 13.1496C16.1269 13.1496 16.9989 13.7576 16.9989 14.9736C16.9989 15.4376 16.8869 15.8136 16.6629 16.1016C16.4389 16.3736 16.1429 16.5576 15.7749 16.6536C15.4069 16.7496 14.9429 16.7976 14.3829 16.7976C13.6309 16.7976 13.0069 16.6536 12.5109 16.3656C12.0149 16.0776 11.7669 15.6136 11.7669 14.9736Z" fill="#124E78"/>
</svg>
