<svg width="302" height="40" viewBox="0 0 302 40" fill="none" xmlns="http://www.w3.org/2000/svg">
<line x1="40" y1="18.5" x2="131" y2="18.5" stroke="#F0F0C9" stroke-width="3"/>
<line x1="171" y1="18.5" x2="262" y2="18.5" stroke="#F0F0C9" stroke-width="3"/>
<circle cx="20" cy="20" r="20" fill="#D74E09"/>
<path d="M23.928 25.376C23.928 26.672 23.696 27.6 23.232 28.16C22.768 28.704 22.064 28.976 21.12 28.976C20.496 28.976 19.992 28.88 19.608 28.688C19.224 28.496 18.928 28.144 18.72 27.632C18.528 27.12 18.424 26.432 18.408 25.568L18.36 16.616C17.592 16.616 16.96 16.48 16.464 16.208C15.968 15.92 15.72 15.448 15.72 14.792C15.72 14.264 15.944 13.832 16.392 13.496C16.856 13.144 17.496 12.968 18.312 12.968C18.632 12.968 19.08 12.976 19.656 12.992C20.248 12.992 20.664 12.992 20.904 12.992C22.088 12.992 22.88 13.192 23.28 13.592C23.696 13.976 23.904 14.656 23.904 15.632L23.928 25.376Z" fill="#F0F0C9"/>
<circle cx="151" cy="20" r="20" fill="#D74E09"/>
<path d="M152.424 24.536H155.088C156.432 24.536 157.104 25.288 157.104 26.792C157.104 27.64 156.888 28.248 156.456 28.616C156.04 28.968 155.288 29.144 154.2 29.144H147.696C146.576 29.144 145.808 29 145.392 28.712C144.992 28.408 144.792 27.768 144.792 26.792C144.792 26.472 144.824 26.2 144.888 25.976C144.952 25.736 145.072 25.504 145.248 25.28C145.424 25.056 145.664 24.84 145.968 24.632C146.832 24.056 147.512 23.592 148.008 23.24C148.504 22.888 148.984 22.52 149.448 22.136C149.928 21.736 150.28 21.4 150.504 21.128C150.728 20.84 150.928 20.52 151.104 20.168C151.296 19.816 151.416 19.464 151.464 19.112C151.528 18.76 151.56 18.344 151.56 17.864C151.56 16.968 151.28 16.52 150.72 16.52C150.112 16.52 149.808 17.048 149.808 18.104C149.808 18.696 149.616 19.08 149.232 19.256C148.848 19.432 148.28 19.52 147.528 19.52C146.504 19.52 145.808 19.296 145.44 18.848C145.088 18.4 144.912 17.656 144.912 16.616C144.912 15.576 145.4 14.712 146.376 14.024C147.368 13.32 148.744 12.968 150.504 12.968C154.856 12.968 157.032 14.624 157.032 17.936C157.032 18.704 156.944 19.408 156.768 20.048C156.592 20.672 156.376 21.2 156.12 21.632C155.864 22.048 155.512 22.448 155.064 22.832C154.632 23.216 154.224 23.528 153.84 23.768C153.456 24.008 152.984 24.264 152.424 24.536Z" fill="#F0F0C9"/>
<circle opacity="0.3" cx="282" cy="20" r="20" fill="#D74E09"/>
<path d="M282.632 18.176C282.632 17.392 281.904 17 280.448 17C280.144 17 279.728 17.032 279.2 17.096C278.688 17.144 278.312 17.168 278.072 17.168C276.92 17.168 276.344 16.48 276.344 15.104C276.344 13.68 278.008 12.968 281.336 12.968C283.496 12.968 285.112 13.32 286.184 14.024C287.256 14.728 287.792 15.648 287.792 16.784C287.792 18.368 287.104 19.632 285.728 20.576C286.656 21.072 287.304 21.592 287.672 22.136C288.056 22.664 288.248 23.432 288.248 24.44C288.248 25.832 287.696 26.968 286.592 27.848C285.504 28.712 284.04 29.144 282.2 29.144C279.896 29.144 278.24 28.912 277.232 28.448C276.24 27.968 275.744 27.248 275.744 26.288C275.744 25.488 275.904 24.944 276.224 24.656C276.544 24.352 276.992 24.2 277.568 24.2C277.856 24.2 278.304 24.232 278.912 24.296C279.52 24.36 279.984 24.392 280.304 24.392C282.048 24.392 282.92 24.072 282.92 23.432C282.92 23 282.752 22.704 282.416 22.544C282.08 22.368 281.448 22.28 280.52 22.28C279.592 22.28 278.936 22.16 278.552 21.92C278.168 21.68 277.976 21.232 277.976 20.576C277.976 19.584 278.632 19.088 279.944 19.088C280.792 19.088 281.416 19.048 281.816 18.968C282.232 18.888 282.472 18.8 282.536 18.704C282.6 18.592 282.632 18.416 282.632 18.176Z" fill="#F0F0C9"/>
</svg>
